<svg xmlns="http://www.w3.org/2000/svg" viewBox="0 0 800 600" width="800" height="600" role="img" aria-label="Community">
  <defs><linearGradient id="g" x1="0" y1="0" x2="1" y2="1"><stop offset="0" stop-color="#123A63"/><stop offset="1" stop-color="#0E6A7D"/></linearGradient></defs>
  <rect width="800" height="600" fill="url(#g)"/>
  <g fill="#ffffff" transform="translate(400,250)">
    <g transform="translate(-120,0)"><circle cx="0" cy="-20" r="34"/><path d="M-40 30c0-22 16-36 40-36s40 14 40 36v40h-80z"/></g>
    <g transform="translate(0,-20)"><circle cx="0" cy="-20" r="40"/><path d="M-46 36c0-26 20-42 46-42s46 16 46 42v44h-92z"/></g>
    <g transform="translate(120,0)"><circle cx="0" cy="-20" r="34"/><path d="M-40 30c0-22 16-36 40-36s40 14 40 36v40h-80z"/></g>
  </g>
  <text x="400" y="510" text-anchor="middle" font-family="'Poppins',sans-serif" font-size="44" font-weight="700" fill="#ffffff">Community</text>
  <rect x="0" y="0" width="800" height="600" fill="none" stroke="#D4AF37" stroke-width="8"/>
</svg>
